<svg width="100" height="100" viewBox="0 0 16 16" fill="none" xmlns="http://www.w3.org/2000/svg">
<path d="M8 16C3.5816 16 0 12.4184 0 8C0 3.5816 3.5816 0 8 0C12.4184 0 16 3.5816 16 8C16 12.4184 12.4184 16 8 16ZM2.6632 11.54C3.18903 12.3267 3.88277 12.9871 4.69448 13.4735C5.50619 13.9599 6.41566 14.2602 7.35739 14.3529C8.29913 14.4456 9.2497 14.3283 10.1406 14.0094C11.0316 13.6906 11.8407 13.1781 12.5098 12.509C13.1789 11.8398 13.6913 11.0306 14.0101 10.1396C14.3289 9.24864 14.4461 8.29807 14.3533 7.35634C14.2606 6.41461 13.9601 5.50517 13.4737 4.69351C12.9872 3.88184 12.3268 3.18816 11.54 2.6624C11.885 3.89298 11.896 5.19322 11.5721 6.42949C11.2482 7.66577 10.6009 8.7935 9.6968 9.6968C8.79358 10.6007 7.66598 11.2479 6.42986 11.5719C5.19374 11.8958 3.89366 11.8848 2.6632 11.54Z" fill="blue"/>
</svg>
